<svg xmlns="http://www.w3.org/2000/svg" width="51.163" height="78.145" viewBox="1862.974 985.645 51.163 78.145"><g data-name="Group 92"><path d="m1905.56 1009.476-11.653-17.427c-1.329-1.987-.638-4.578 1.544-5.789 2.181-1.21 5.027-.58 6.356 1.407l11.653 17.427c1.33 1.987.638 4.579-1.543 5.789-2.182 1.21-5.027.58-6.356-1.407" fill="#4d297b" fill-rule="evenodd" data-name="Path 268"/><path d="m1895.472 1027.05-11.654-17.428c-1.33-1.987-.638-4.578 1.543-5.788 2.182-1.21 5.028-.581 6.357 1.406l11.653 17.427c1.33 1.987.638 4.579-1.543 5.789-2.182 1.21-5.027.58-6.356-1.407" fill="#4d297b" fill-rule="evenodd" data-name="Path 269"/><path d="m1885.383 1044.274-11.654-17.427c-1.33-1.987-.638-4.579 1.543-5.789 2.182-1.21 5.027-.58 6.357 1.406l11.653 17.427c1.33 1.987.638 4.579-1.543 5.79-2.182 1.21-5.028.58-6.356-1.407" fill="#4d297b" fill-rule="evenodd" data-name="Path 270"/><path d="m1875.303 1061.768-11.654-17.428c-1.328-1.986-.637-4.578 1.544-5.788 2.182-1.21 5.027-.58 6.356 1.406l11.654 17.427c1.328 1.987.638 4.579-1.544 5.79-2.181 1.21-5.027.58-6.356-1.407" fill="#4d297b" fill-rule="evenodd" data-name="Path 271"/></g></svg>