<svg xmlns="http://www.w3.org/2000/svg" width="448.123" height="373.597" viewBox="1667.199 706.403 448.123 373.597"><g data-name="Group 46"><path d="M1821.211 910.195 1723.174 1080h392.148l-98.037-169.805-98.037-169.805-98.037 169.805Z" fill="#4d297b" fill-rule="evenodd" data-name="Path 277"/><g data-name="Group 45"><g data-name="Group 44" transform="translate(1667.199 706.403)" clip-path="url(&quot;#a&quot;)"><path d="M112.093 21.916c.572 11.458 11.235 20.236 23.814 19.607 12.58-.628 22.314-10.426 21.741-21.884C157.075 8.182 146.413-.597 133.834.032c-12.58.628-22.314 10.426-21.741 21.884" fill="#ed1e24" fill-rule="evenodd" data-name="Path 278"/><path d="M35.935 133.405c0 11.472 10.21 20.772 22.806 20.772 12.595 0 22.806-9.3 22.806-20.772 0-11.472-10.211-20.771-22.806-20.771-12.596 0-22.806 9.3-22.806 20.771" fill="#ed1e24" fill-rule="evenodd" data-name="Path 279"/><path d="M70.31 74.607c0 11.472 10.21 20.771 22.806 20.771 12.595 0 22.806-9.3 22.806-20.771 0-11.472-10.21-20.772-22.806-20.772s-22.806 9.3-22.806 20.772" fill="#ed1e24" fill-rule="evenodd" data-name="Path 280"/><path d="M0 192.204c0 11.472 10.21 20.772 22.806 20.772 12.595 0 22.806-9.3 22.806-20.772 0-11.472-10.21-20.772-22.806-20.772-12.595 0-22.806 9.3-22.806 20.772" fill="#ed1e24" fill-rule="evenodd" data-name="Path 281"/><path d="m198.242 133.508-40.75-60.935c-4.645-6.948-2.228-16.01 5.4-20.242 7.627-4.231 17.577-2.03 22.223 4.918l40.75 60.935c4.646 6.947 2.229 16.01-5.4 20.241-7.627 4.232-17.577 2.03-22.223-4.917" fill="#4d297b" fill-rule="evenodd" data-name="Path 282"/><path d="m162.965 192.307-40.75-60.936c-4.646-6.947-2.229-16.01 5.399-20.24 7.627-4.232 17.577-2.03 22.223 4.917l40.75 60.935c4.646 6.947 2.229 16.01-5.399 20.241-7.627 4.232-17.577 2.03-22.223-4.917" fill="#4d297b" fill-rule="evenodd" data-name="Path 283"/><path d="m127.687 251.105-40.75-60.935c-4.646-6.947-2.229-16.01 5.399-20.241 7.628-4.232 17.577-2.03 22.223 4.917l40.75 60.936c4.646 6.947 2.229 16.01-5.399 20.24-7.627 4.232-17.577 2.03-22.223-4.917" fill="#4d297b" fill-rule="evenodd" data-name="Path 284"/><path d="m92.443 309.848-40.75-60.936c-4.646-6.947-2.229-16.01 5.399-20.24 7.628-4.233 17.577-2.03 22.223 4.916l40.75 60.936c4.646 6.947 2.23 16.01-5.399 20.24-7.627 4.233-17.577 2.031-22.223-4.916" fill="#4d297b" fill-rule="evenodd" data-name="Path 285"/></g></g></g><defs><clipPath id="a"><path d="M0 0h448.123v373.597H0V0z" data-name="Rectangle 14"/></clipPath></defs></svg>