<svg xmlns="http://www.w3.org/2000/svg" width="218.901" height="165.968" viewBox="211.05 50.697 218.901 165.968"><g data-name="Group 39"><path d="M357.067 146.264h-84.751l21.188-36.698 21.188-36.698 21.188 36.698 21.187 36.698Z" fill="#4d297b" fill-rule="evenodd" data-name="Path 259"/><path d="m368.703 50.697-30.59 53.023-30.59 53.023 61.214-.02 61.213-.02-30.623-53.002-30.624-53.004Z" fill="#0b8140" fill-rule="evenodd" data-name="Path 260"/><g data-name="Group 38"><g data-name="Group 37" transform="translate(211.05 50.697)" clip-path="url(&quot;#a&quot;)"><path d="M73.394 19.562c.124 2.476 2.428 4.373 5.147 4.237 2.718-.136 4.822-2.253 4.698-4.73-.123-2.476-2.427-4.373-5.146-4.237-2.719.136-4.823 2.253-4.699 4.73" fill="#ed1e24" fill-rule="evenodd" data-name="Path 261"/><path d="M56.935 43.657c0 2.479 2.206 4.489 4.929 4.489 2.722 0 4.929-2.01 4.929-4.49 0-2.478-2.207-4.488-4.929-4.488-2.723 0-4.93 2.01-4.93 4.489" fill="#ed1e24" fill-rule="evenodd" data-name="Path 262"/><path d="M64.364 30.95c0 2.479 2.207 4.488 4.93 4.488 2.721 0 4.928-2.01 4.928-4.489 0-2.48-2.207-4.489-4.929-4.489-2.722 0-4.929 2.01-4.929 4.49" fill="#ed1e24" fill-rule="evenodd" data-name="Path 263"/><path d="M49.169 56.364c0 2.48 2.207 4.49 4.929 4.49 2.722 0 4.929-2.01 4.929-4.49 0-2.48-2.207-4.489-4.929-4.489-2.722 0-4.93 2.01-4.93 4.49" fill="#ed1e24" fill-rule="evenodd" data-name="Path 264"/><path d="m94.38 100.138-19.075 32.914-19.075 32.916-18.968-32.977-18.968-32.976 38.043.061 38.043.062Z" fill="#faa41a" fill-rule="evenodd" data-name="Path 265"/><path d="m60.648 108.868-15.205 26.237-15.204 26.237-15.12-26.286L0 108.771l30.324.048 30.324.05Z" fill="#3853a4" fill-rule="evenodd" data-name="Path 266"/><path d="m136.281 55.322 21.406-.217 21.406-.218-10.486 18.662L158.12 92.21 147.2 73.766l-10.919-18.444Z" fill="#fff" fill-rule="evenodd" data-name="Path 267"/><path d="m92.013 43.679-8.807-13.17c-1.004-1.5-.482-3.46 1.167-4.374 1.648-.914 3.799-.438 4.803 1.063l8.807 13.17c1.004 1.5.481 3.46-1.167 4.374-1.649.914-3.799.439-4.803-1.063" fill="#4d297b" fill-rule="evenodd" data-name="Path 268"/><path d="m84.389 56.386-8.807-13.169c-1.004-1.501-.482-3.46 1.166-4.374 1.649-.915 3.8-.44 4.804 1.062l8.806 13.17c1.004 1.501.482 3.46-1.166 4.374-1.649.915-3.8.439-4.803-1.063" fill="#4d297b" fill-rule="evenodd" data-name="Path 269"/><path d="m76.765 69.094-8.807-13.17c-1.005-1.5-.482-3.46 1.166-4.374 1.65-.914 3.799-.439 4.804 1.063l8.806 13.17c1.004 1.5.482 3.46-1.166 4.374-1.649.914-3.8.439-4.803-1.063" fill="#4d297b" fill-rule="evenodd" data-name="Path 270"/><path d="M69.148 81.79 60.34 68.62c-1.004-1.502-.482-3.46 1.167-4.374 1.648-.915 3.799-.44 4.803 1.062l8.806 13.17c1.004 1.5.482 3.46-1.166 4.374-1.649.915-3.8.439-4.803-1.063" fill="#4d297b" fill-rule="evenodd" data-name="Path 271"/></g></g></g><defs><clipPath id="a"><path d="M0 0h218.901v165.968H0V0z" data-name="Rectangle 13"/></clipPath></defs></svg>