<svg xmlns="http://www.w3.org/2000/svg" width="75.565" height="52.891" viewBox="1161.435 674.914 75.565 52.891"><path d="M1184.11 716.471h22.667c6.257 0 11.334-5.077 11.334-11.334h3.777c8.335 0 15.112-6.776 15.112-15.111s-6.777-15.112-15.112-15.112h-46.279a2.827 2.827 0 0 0-2.833 2.833v27.39c0 6.257 5.076 11.334 11.333 11.334Zm37.778-34.001c4.168 0 7.556 3.388 7.556 7.556 0 4.167-3.388 7.555-7.556 7.555h-3.777V682.47h3.777Zm5.632 45.335h-60.376c-5.62 0-7.201-7.556-4.25-7.556h68.864c2.952 0 1.393 7.556-4.238 7.556Z" fill="#f8f5f0" fill-rule="evenodd" data-name="Icon awesome-coffee"/></svg>