<svg xmlns="http://www.w3.org/2000/svg" width="96.733" height="84.796" viewBox="1336.026 344.646 96.733 84.796"><path d="m1432.545 367.28-7.93 62.162h-26.785l-7.897-62.473h32.7l6.462-22.323 3.664 1.104-6.2 21.483 5.986.047Zm-46.4 35.964s1.003-8.061-12.887-8.061h-22.12c-13.868 0-12.887 8.061-12.887 8.061h47.895Zm-47.894 18.137s-.981 8.061 12.888 8.061h22.121c13.89 0 12.888-8.06 12.888-8.06h-47.897Zm45.817-4.03c2.273 0 4.11-2.245 4.11-5.036 0-2.808-1.837-5.04-4.11-5.04h-43.93c-2.264 0-4.112 2.232-4.112 5.04 0 2.79 1.848 5.036 4.111 5.036h43.931Z" fill="#f8f5f0" fill-rule="evenodd" data-name="Icon map-food"/></svg>