<svg xmlns="http://www.w3.org/2000/svg" width="80.091" height="66.742" viewBox="1049.972 354.2 80.091 66.742"><path d="M1063.77 377.56h6.535l1.004 30.034h-8.407l.869-30.034Zm-5.455 31.702h63.405v3.337h5.005v5.006h3.337v3.337h-80.09v-3.337h3.337v-5.006h5.006v-3.337Zm66.742-40.359L1090.02 354.2l-35.043 14.703v1.983h70.079v-1.983Zm-63.405 3.651h56.73v3.337h-56.73v-3.337Zm47.947 5.006h6.531l1.013 30.034h-8.42l.876-30.034Zm-15.27 0h6.53l1.002 30.034h-8.412l.88-30.034Zm-15.274 0h6.532l.995 30.034h-8.408l.88-30.034Z" fill="#f8f5f0" fill-rule="evenodd" data-name="Icon map-museum"/></svg>