<svg xmlns="http://www.w3.org/2000/svg" width="103.975" height="77.426" viewBox="276.025 863.574 103.975 77.426"><path d="M276.025 902.287v19.356c0 2.677 2.323 4.84 5.198 4.84h5.2v-29.035h-5.2c-2.875 0-5.198 2.162-5.198 4.839Zm75.382-24.196H333.21v-9.678c0-2.677-2.323-4.84-5.199-4.84-2.875 0-5.198 2.163-5.198 4.84v9.678h-18.196c-7.181 0-12.997 5.414-12.997 12.098v41.133c0 5.338 4.663 9.678 10.397 9.678h51.988c5.735 0 10.398-4.34 10.398-9.678v-41.133c0-6.684-5.816-12.098-12.997-12.098Zm-33.792 48.392h-10.398v-4.84h10.398v4.84Zm-5.199-18.147c-3.59 0-6.498-2.707-6.498-6.05 0-3.341 2.908-6.048 6.498-6.048 3.59 0 6.498 2.707 6.498 6.049 0 3.342-2.908 6.049-6.498 6.049Zm20.795 18.147h-10.397v-4.84h10.397v4.84Zm15.596 0H338.41v-4.84h10.397v4.84Zm-5.198-18.147c-3.59 0-6.499-2.707-6.499-6.05 0-3.341 2.908-6.048 6.499-6.048 3.59 0 6.498 2.707 6.498 6.049 0 3.342-2.908 6.049-6.498 6.049Zm31.192-10.888h-5.199v29.035h5.2c2.875 0 5.198-2.163 5.198-4.84v-19.356c0-2.677-2.323-4.84-5.199-4.84Z" fill="#3853a5" fill-rule="evenodd" data-name="Icon awesome-robot"/></svg>