<svg xmlns="http://www.w3.org/2000/svg" width="50.912" height="66.58" viewBox="876.29 661.225 50.912 66.58"><path d="m926.449 710.443-10.593-11.767h4.062c1.194 0 2.25-.65 2.755-1.698.504-1.046.338-2.245-.435-3.128l-10.36-11.818h3.831c1.207 0 2.294-.696 2.766-1.77a2.851 2.851 0 0 0-.562-3.131l-14.62-15.277c-.8-.839-2.292-.839-3.092 0l-14.622 15.277a2.854 2.854 0 0 0-.562 3.13c.472 1.075 1.56 1.77 2.767 1.77h3.83l-10.36 11.822a2.827 2.827 0 0 0-.434 3.126c.504 1.047 1.56 1.697 2.755 1.697h4.062l-10.593 11.767c-.795.883-.976 2.092-.472 3.154.497 1.047 1.591 1.723 2.786 1.723h18.146v3.18l-4.016 6.293c-.706 1.384.32 3.012 1.897 3.012h12.723c1.577 0 2.603-1.628 1.897-3.012l-4.016-6.293v-3.18h18.146c1.195 0 2.289-.676 2.786-1.723.504-1.062.323-2.271-.472-3.154Z" fill="#f8f5f0" fill-rule="evenodd" data-name="Icon awesome-tree"/></svg>